<?xml version="1.0" standalone="no"?>
<!DOCTYPE svg PUBLIC "-//W3C//DTD SVG 20010904//EN"
 "http://www.w3.org/TR/2001/REC-SVG-20010904/DTD/svg10.dtd">
<svg version="1.0" xmlns="http://www.w3.org/2000/svg"
 width="612.000000pt" height="611.000000pt" viewBox="0 0 612.000000 611.000000"
 preserveAspectRatio="xMidYMid meet">

<g transform="translate(0.000000,611.000000) scale(0.100000,-0.100000)"
fill="#000000" stroke="none">
<path d="M0 3055 l0 -3055 3060 0 3060 0 0 3055 0 3055 -3060 0 -3060 0 0
-3055z m3183 2955 c352 -21 637 -86 957 -222 600 -254 1109 -706 1427 -1268
330 -585 451 -1278 338 -1945 -172 -1015 -839 -1846 -1787 -2224 -349 -139
-634 -199 -998 -208 -383 -10 -687 34 -1025 149 -319 109 -683 310 -925 511
-108 90 -318 301 -392 392 -360 450 -565 925 -645 1495 -24 175 -24 596 1 765
69 475 220 876 471 1250 155 231 286 383 482 561 481 434 1131 709 1757 743
78 5 148 9 156 9 8 1 91 -3 183 -8z"/>
<path d="M2770 5789 c-47 -5 -145 -20 -218 -34 -862 -165 -1564 -702 -1951
-1490 -117 -238 -188 -458 -237 -735 -22 -120 -27 -187 -31 -387 -6 -267 4
-401 43 -605 119 -618 471 -1202 960 -1594 180 -144 471 -311 699 -402 827
-328 1748 -228 2500 273 630 419 1048 1084 1172 1865 26 163 26 615 0 780 -45
288 -128 553 -252 805 -272 555 -706 990 -1250 1254 -272 132 -524 213 -805
256 -124 20 -503 28 -630 14z m-62 -348 c4 -26 -13 -42 -35 -34 -14 5 -18 45
-6 57 14 14 38 0 41 -23z m-370 -77 c43 -30 19 -114 -34 -114 -24 0 -64 42
-64 68 0 21 39 62 60 62 8 0 26 -7 38 -16z m962 -134 c136 -17 237 -46 355
-104 294 -145 501 -396 592 -719 l27 -96 240 -3 c221 -3 245 -5 286 -24 57
-27 123 -93 152 -153 l23 -46 0 -1270 0 -1270 -21 -46 c-31 -67 -87 -124 -152
-156 l-57 -28 -605 -5 -605 -5 -40 -72 c-37 -66 -43 -73 -72 -73 -17 0 -34 -3
-36 -7 -3 -5 8 -60 24 -123 39 -158 41 -150 -30 -150 l-59 0 -33 135 -33 135
-208 0 -208 0 -7 -28 c-3 -15 -18 -74 -33 -132 l-26 -105 -62 -3 c-46 -2 -62
0 -62 10 0 8 14 69 30 136 17 68 30 125 30 128 0 2 -19 4 -43 4 l-42 0 -40 75
-40 74 -615 3 c-612 3 -615 3 -663 25 -75 35 -121 77 -158 145 l-34 63 0 1265
0 1265 28 57 c33 68 99 129 165 154 42 16 92 19 444 22 l396 3 7 42 c4 23 21
80 37 127 102 290 297 514 563 647 115 58 201 83 355 107 52 7 148 6 230 -4z
m846 -11 c3 -6 1 -16 -5 -22 -9 -9 -14 -8 -21 3 -9 15 -4 30 10 30 5 0 12 -5
16 -11z m403 -163 c9 -10 34 -27 55 -38 l40 -20 -30 -15 c-41 -22 -81 -61 -95
-95 l-12 -29 -26 48 c-19 35 -37 53 -68 68 -23 11 -42 22 -43 25 0 3 21 16 48
30 30 16 54 38 67 62 l20 37 14 -27 c7 -15 21 -35 30 -46z m-2709 21 c0 -32
62 -97 117 -125 53 -27 55 -30 33 -37 -51 -16 -103 -58 -133 -106 l-31 -50
-19 38 c-28 55 -56 83 -110 108 l-48 23 54 25 c54 24 98 70 112 115 7 24 25
30 25 9z m-582 -465 l37 -37 -36 -35 -36 -35 -35 37 -35 38 23 15 c12 8 25 24
29 35 3 11 8 20 11 20 2 0 21 -17 42 -38z m3520 22 c39 -27 19 -104 -27 -104
-51 0 -79 64 -44 102 20 22 42 23 71 2z m-953 -3891 c29 -28 65 -92 65 -113 0
-20 -4 -20 -854 -20 -579 0 -857 3 -861 10 -8 13 28 86 58 118 l20 22 778 0
c711 0 779 -1 794 -17z"/>
<path d="M1371 4130 c-40 -9 -77 -35 -105 -74 -21 -27 -21 -31 -21 -1246 0
-1209 0 -1219 20 -1246 11 -15 36 -35 55 -45 32 -18 108 -18 1704 -18 l1671 0
40 22 c81 45 75 -56 75 1288 l0 1196 -23 44 c-13 24 -39 53 -58 64 -34 20 -50
20 -1679 22 -905 0 -1660 -3 -1679 -7z m2994 -160 c0 -16 -6 -26 -18 -28 -19
-4 -32 20 -23 44 9 25 41 13 41 -16z m-625 -113 c36 -17 67 -43 90 -74 l35
-46 5 -291 c8 -440 2 -1008 -10 -1042 -31 -83 -108 -149 -193 -165 -23 -5 -90
-5 -148 -2 l-106 6 43 39 c43 39 94 126 94 159 0 9 27 48 59 87 140 167 198
335 189 545 -6 146 -40 248 -119 367 -159 238 -402 363 -674 347 -126 -8 -186
-24 -304 -83 -152 -75 -291 -229 -355 -394 -69 -175 -60 -412 22 -593 72 -158
215 -308 348 -363 18 -8 34 -18 34 -23 0 -5 -18 -29 -39 -53 l-39 -43 -139 0
c-113 0 -145 3 -174 18 -51 25 -99 74 -123 127 -21 44 -21 56 -21 685 0 705
-3 670 63 741 65 70 51 68 527 75 237 3 531 5 655 5 225 -1 225 -1 280 -29z
m-1893 -163 c15 -15 55 -39 88 -54 l60 -27 -65 -30 c-79 -37 -114 -72 -144
-147 l-23 -56 -12 43 c-26 89 -94 154 -178 172 -18 4 -33 10 -33 14 0 4 27 19
60 34 77 36 122 81 146 146 l18 51 27 -60 c15 -33 40 -72 56 -86z m1156 -93
c34 -20 70 -75 81 -122 6 -26 5 -27 -67 -37 -41 -6 -84 -15 -97 -20 -18 -7
-34 -3 -67 16 -48 26 -133 52 -175 52 -16 0 -28 4 -28 9 0 16 68 67 126 95 98
48 158 50 227 7z m261 14 c70 -21 125 -56 195 -123 l61 -58 -16 -54 c-16 -57
-72 -170 -83 -170 -4 0 -15 16 -26 36 -18 34 -118 134 -134 134 -5 0 -11 31
-14 68 -3 40 -16 92 -31 125 -28 63 -26 64 48 42z m1034 -27 c25 -25 8 -78
-26 -78 -16 0 -41 28 -42 47 0 15 28 43 44 43 6 0 17 -5 24 -12z m-1558 -278
c12 -8 10 -13 -12 -37 -14 -15 -35 -47 -46 -69 -19 -38 -25 -42 -71 -48 -56
-7 -113 -29 -155 -59 l-28 -20 7 44 c17 103 63 163 142 185 57 15 142 17 163
4z m426 -28 c54 -27 117 -98 139 -155 21 -56 17 -154 -9 -209 -65 -135 -232
-192 -368 -125 -177 87 -210 304 -67 443 74 72 212 93 305 46z m462 -39 c44
-87 60 -269 29 -316 -19 -29 -115 -76 -172 -84 -46 -6 -56 2 -32 26 8 8 12 43
12 99 l0 88 42 49 c23 27 55 78 70 112 15 34 29 63 30 63 2 0 11 -17 21 -37z
m807 -84 c9 -17 32 -40 51 -51 l35 -21 -37 -22 c-20 -12 -44 -36 -53 -54 l-16
-31 -19 35 c-11 20 -35 42 -58 54 l-40 20 42 21 c23 12 49 34 58 51 9 16 18
29 19 29 1 0 10 -14 18 -31z m-1921 -214 c-9 -14 -18 -25 -21 -25 -5 0 5 18
20 38 17 22 18 13 1 -13z m215 -176 c35 -44 38 -55 44 -126 3 -45 15 -100 27
-128 11 -26 18 -50 16 -52 -3 -3 -33 10 -67 29 -73 38 -165 124 -174 161 -8
32 17 132 52 203 l27 55 18 -47 c11 -26 36 -69 57 -95z m759 -63 c50 0 92 -2
92 -6 0 -4 -25 -34 -55 -67 -63 -69 -122 -103 -183 -103 -53 0 -138 32 -182
68 l-34 29 49 12 c52 13 145 60 145 74 0 4 17 4 38 0 20 -4 79 -8 130 -7z
m-530 -88 c11 -13 37 -43 58 -66 21 -24 72 -64 113 -88 l76 -44 -72 0 -71 0
-55 50 c-54 49 -79 88 -92 143 -9 34 14 37 43 5z m-932 -130 c154 -241 188
-281 281 -328 46 -24 58 -25 255 -28 l207 -3 3 -160 c2 -87 0 -158 -4 -157 -4
2 -44 39 -90 83 -121 117 -103 110 -191 70 l-75 -35 44 -100 c49 -112 49 -110
32 -110 -14 0 -60 51 -148 165 -129 167 -242 306 -245 303 -2 -2 0 -57 5 -123
4 -66 6 -122 4 -124 -7 -7 -113 113 -118 134 -3 11 -12 71 -22 133 -9 61 -20
112 -24 112 -3 0 -112 -98 -240 -217 -128 -120 -251 -233 -272 -251 l-38 -34
0 105 0 105 133 125 c216 203 441 407 449 407 5 0 29 -33 54 -72z m2249 -107
c93 -85 218 -200 278 -256 l107 -101 0 -113 c0 -62 -4 -111 -9 -109 -5 2 -100
91 -212 198 -112 108 -231 221 -264 252 l-61 57 -133 -262 c-74 -144 -143
-277 -153 -294 l-20 -33 -101 0 -102 0 98 98 99 99 -59 21 c-32 12 -83 29
-113 38 -30 9 -60 21 -66 25 -7 6 -50 -27 -115 -86 -57 -52 -107 -95 -111 -95
-5 0 -8 69 -8 154 l0 155 203 3 c197 3 203 4 253 30 74 39 140 119 219 267 59
108 72 127 85 117 8 -6 91 -80 185 -165z m-1290 -273 c3 -18 5 -112 3 -208
l-3 -175 -40 0 -40 0 -3 208 -2 207 39 0 c37 0 41 -2 46 -32z m215 -173 l0
-205 -39 0 c-32 0 -40 4 -45 23 -8 30 -8 372 1 380 3 4 24 7 45 7 l38 0 0
-205z"/>
<path d="M2384 3755 c-49 -25 -64 -62 -64 -154 0 -95 7 -100 64 -42 32 33 37
44 32 66 -10 41 8 55 71 55 l54 0 -3 43 -3 42 -60 2 c-38 2 -71 -3 -91 -12z"/>
<path d="M3566 3755 c-10 -10 -16 -29 -14 -44 3 -24 7 -26 61 -29 l57 -3 0
-49 c0 -44 3 -51 41 -84 23 -19 46 -33 50 -30 13 8 11 159 -2 187 -15 34 -61
58 -122 64 -42 4 -57 2 -71 -12z"/>
<path d="M2321 2490 c4 -89 5 -92 37 -121 30 -27 39 -29 107 -29 l75 0 0 33
c0 51 -12 61 -63 55 -56 -7 -72 2 -63 35 4 19 -2 36 -27 69 -18 23 -41 44 -51
46 -17 4 -18 -4 -15 -88z"/>
<path d="M3713 2544 c-37 -31 -43 -41 -43 -75 l0 -39 -49 0 c-53 0 -61 -8 -61
-61 l0 -29 71 0 c67 0 73 2 105 34 33 33 34 36 34 120 0 47 -3 86 -7 86 -5 0
-27 -16 -50 -36z"/>
<path d="M2795 1441 c-74 -31 -80 -137 -10 -169 40 -18 71 -14 104 14 51 42
41 118 -19 149 -32 17 -45 18 -75 6z m43 -94 c2 -10 -3 -17 -12 -17 -10 0 -16
9 -16 21 0 24 23 21 28 -4z"/>
<path d="M3201 1436 c-56 -31 -67 -102 -22 -147 39 -38 87 -39 130 -3 53 45
36 130 -31 153 -39 14 -47 13 -77 -3z m59 -86 c0 -11 -7 -20 -15 -20 -8 0 -15
9 -15 20 0 11 7 20 15 20 8 0 15 -9 15 -20z"/>
</g>
</svg>
